Coordinates
version=1
nRows=12
nColumns=24
inDegrees=yes

Units are S.I. units (second, meters, Newtons, ...)
Angles are in degrees.

endheader
time	pelvis_tilt	pelvis_list	pelvis_rotation	pelvis_tx	pelvis_ty	pelvis_tz	hip_flexion_r	hip_adduction_r	hip_rotation_r	knee_angle_r	ankle_angle_r	subtalar_angle_r	mtp_angle_r	hip_flexion_l	hip_adduction_l	hip_rotation_l	knee_angle_l	ankle_angle_l	subtalar_angle_l	mtp_angle_l	lumbar_extension	lumbar_bending	lumbar_rotation
      4.63000000	     66.05007008	     -3.68674684	      3.62300169	      0.65424875	      1.01528532	     -0.21780611	     -5.87579454	    -11.56802146	      5.73651832	    -51.53374730	    -15.74216597	     40.02578130	     96.05531406	     -8.14609898	    -13.87884327	      7.39331134	    -57.98560913	      9.99761559	     24.44497125	     26.40710519	      0.00000000	      0.00000000	      0.00000000
      4.64000000	     66.02210424	     -3.62333150	      3.59725436	      0.65434127	      1.01522513	     -0.21808964	     -5.86651767	    -12.05627392	      5.79742993	    -51.64045393	    -15.16942061	     42.22918850	     95.50698006	     -8.10973144	    -13.76293652	      7.41541248	    -58.02912612	     10.01875551	     24.37273357	     26.38738377	      0.00000000	      0.00000000	      0.00000000
      4.65000000	     66.00047107	     -3.54106079	      3.58376656	      0.65442533	      1.01516588	     -0.21832860	     -5.85876388	    -12.40691314	      5.87621758	    -51.72973871	    -14.68689545	     44.19664047	     95.00790723	     -8.07840299	    -13.64749135	      7.44000170	    -58.06073471	     10.03530098	     24.31081555	     26.36943373	      0.00000000	      0.00000000	      0.00000000
      4.66000000	     65.98503876	     -3.45950270	      3.58274218	      0.65445733	      1.01511557	     -0.21840923	     -5.85685507	    -12.63277785	      5.96895934	    -51.80543612	    -14.31429658	     45.81897145	     94.59321955	     -8.05378302	    -13.54493305	      7.46612661	    -58.07974524	     10.04737823	     24.26260690	     26.35436619	      0.00000000	      0.00000000	      0.00000000
      4.67000000	     65.97623054	     -3.39574707	      3.58945031	      0.65444391	      1.01508376	     -0.21837379	     -5.86242420	    -12.76749747	      6.06125237	    -51.87482468	    -14.06206217	     47.01647994	     94.29488085	     -8.03789428	    -13.46694231	      7.49044876	    -58.08894356	     10.05561071	     24.23025349	     26.34331377	      0.00000000	      0.00000000	      0.00000000
      4.68000000	     65.97526128	     -3.35737391	      3.59663103	      0.65441577	      1.01507365	     -0.21831962	     -5.87358518	    -12.84422324	      6.13343779	    -51.94483155	    -13.93306763	     47.73802864	     94.13863066	     -8.03279466	    -13.41999536	      7.50769562	    -58.09316537	     10.06071086	     24.21476722	     26.33731991	      0.00000000	      0.00000000	      0.00000000
      4.69000000	     65.98318882	     -3.34499973	      3.59829416	      0.65439468	      1.01508036	     -0.21829989	     -5.88680585	    -12.88479047	      6.16926548	    -52.01955113	    -13.92500953	     47.95659381	     94.14133919	     -8.03963811	    -13.40592313	      7.51298374	    -58.09674826	     10.06305983	     24.21619284	     26.33715435	      0.00000000	      0.00000000	      0.00000000
      4.70000000	     65.99975587	     -3.35810279	      3.59252525	      0.65438831	      1.01509220	     -0.21832155	     -5.89969903	    -12.89683195	      6.16341541	    -52.09954696	    -14.03256256	     47.66464015	     94.30913283	     -8.05781788	    -13.42516879	      7.50454831	    -58.10109126	     10.06244639	     24.23378492	     26.34312345	      0.00000000	      0.00000000	      0.00000000
      4.71000000	     66.02295129	     -3.39777803	      3.58223444	      0.65439434	      1.01509774	     -0.21836905	     -5.91259207	    -12.87315860	      6.12390305	    -52.18236120	    -14.24871210	     46.87200291	     94.63655368	     -8.08491481	    -13.47828684	      7.48491361	    -58.10359518	     10.05808634	     24.26620251	     26.35496689	      0.00000000	      0.00000000	      0.00000000
      4.72000000	     66.04969208	     -3.46399109	      3.57395125	      0.65439538	      1.01510036	     -0.21838988	     -5.92768891	    -12.79118594	      6.06818432	    -52.26331759	    -14.56509085	     45.60732067	     95.10686521	     -8.11773269	    -13.56373696	      7.45960548	    -58.09864120	     10.04893478	     24.31170736	     26.37189531	      0.00000000	      0.00000000	      0.00000000
      4.73000000	     66.07732488	     -3.54975373	      3.57503673	      0.65435988	      1.01512151	     -0.21829583	     -5.94648237	    -12.61567101	      6.01503331	    -52.33621386	    -14.97150384	     43.92211580	     95.69346775	     -8.15386934	    -13.67446058	      7.43429930	    -58.08021931	     10.03418763	     24.36829202	     26.39275030	      0.00000000	      0.00000000	      0.00000000
      4.74000000	     66.10502252	     -3.63835865	      3.59009116	      0.65427194	      1.01518116	     -0.21805299	     -5.96767743	    -12.31051488	      5.97641561	    -52.39434395	    -15.45503037	     41.89501827	     96.36228397	     -8.19261144	    -13.79783832	      7.41239952	    -58.04488565	     10.01379441	     24.43365167	     26.41620834	      0.00000000	      0.00000000	      0.00000000
